<svg xmlns="http://www.w3.org/2000/svg" xmlns:xlink="http://www.w3.org/1999/xlink" version="1.1" x="0px" y="0px" viewBox="0 0 100 125" enable-background="new 0 0 100 100" xml:space="preserve"><path d="M79.925,49.139c2.494,1.281,5.633,0.883,7.717-1.201c2.584-2.584,2.583-6.789-0.002-9.374l-0.248-0.248  c3.406-5.104,4.065-11.697,1.719-17.39l1.779-1.777c2.766-2.769,2.766-7.271-0.002-10.038c-2.766-2.766-7.268-2.766-10.037,0  l-1.774,1.775c-5.693-2.347-12.29-1.69-17.397,1.714l-0.244-0.245c-1.253-1.253-2.918-1.942-4.688-1.942  c-1.771,0-3.435,0.69-4.686,1.941c-1.251,1.249-1.94,2.91-1.941,4.678c0,1.075,0.257,2.11,0.737,3.04  c-3.049-0.215-6.172,0.831-8.497,3.155L10.23,55.359c-4.26,4.259-4.261,11.191-0.001,15.454l0,0.001l18.958,18.956  c4.258,4.259,11.189,4.258,15.451-0.003L76.77,57.636C79.095,55.311,80.14,52.188,79.925,49.139z M78.754,14.027  c0.575,0.278,1.263,0.162,1.714-0.29l2.504-2.504c1.599-1.597,4.199-1.598,5.796,0c1.597,1.597,1.597,4.196,0.001,5.794l-2.51,2.506  c-0.451,0.451-0.567,1.14-0.289,1.714c2.305,4.768,1.98,10.442-0.748,14.898l-0.902-0.902L63.851,14.769  C68.31,12.044,73.985,11.723,78.754,14.027z M53.12,17.035c0.001-0.966,0.377-1.874,1.063-2.557  c0.685-0.687,1.596-1.063,2.564-1.063s1.88,0.377,2.565,1.063l24.556,24.558l0.502,0.502v0l1.148,1.148  c1.415,1.415,1.416,3.717,0.002,5.131c-1.413,1.413-3.714,1.411-5.129-0.004L54.185,19.604  C53.498,18.917,53.119,18.005,53.12,17.035z M31.308,87.648L12.352,68.693c-3.091-3.094-3.091-8.123,0-11.213l32.13-32.131  c3.086-3.085,8.108-3.086,11.2-0.005l18.983,18.984c3.07,3.091,3.064,8.103-0.018,11.187L42.517,87.646  C39.426,90.737,34.397,90.738,31.308,87.648z M46.087,33.973l3.381,3.38c0.586,0.586,1.536,0.585,2.121,0  c0.586-0.586,0.586-1.536,0-2.122l-3.381-3.38c-0.586-0.586-1.536-0.586-2.121,0C45.501,32.438,45.501,33.387,46.087,33.973z   M39.29,38.65c-0.586,0.586-0.586,1.535,0,2.121l7.495,7.495c0.586,0.586,1.536,0.586,2.122,0s0.586-1.536,0-2.122l-7.495-7.495  C40.826,38.064,39.876,38.064,39.29,38.65z M37.997,48.827l-3.383-3.38c-0.586-0.586-1.536-0.586-2.121,0  c-0.585,0.586-0.585,1.536,0,2.121l0,0l3.383,3.381c0.586,0.585,1.536,0.585,2.121-0.002C38.583,50.362,38.583,49.413,37.997,48.827  L37.997,48.827z M35.315,59.738L35.315,59.738l-7.5-7.495c-0.586-0.586-1.536-0.585-2.121,0.001c-0.586,0.585-0.585,1.535,0,2.121h0  l7.499,7.495c0.585,0.585,1.536,0.585,2.122-0.001C35.901,61.273,35.9,60.324,35.315,59.738z M24.401,62.42l-3.382-3.381  c-0.586-0.586-1.536-0.586-2.121,0c-0.586,0.586-0.585,1.535,0,2.121l3.382,3.382c0.586,0.586,1.536,0.585,2.121,0  C24.987,63.956,24.987,63.006,24.401,62.42z"/></svg>
