<svg xmlns="http://www.w3.org/2000/svg" version="1.1" viewBox="-5.0 -10.0 110.0 135.0">
 <path d="m12.301 82c-1.5 0-2.8008 1.1992-2.8008 2.6992s1.1992 2.6992 2.8008 2.6992c1.5 0 2.8008-1.1992 2.8008-2.6992s-1.1992-2.6992-2.8008-2.6992z"/>
 <path d="m19.801 75.102c-2.1016 0-3.8008 1.6992-3.8008 3.8008 0 2.1016 1.6992 3.8008 3.8008 3.8008 2.1016 0 3.8008-1.6992 3.8008-3.8008 0-2.1016-1.6992-3.8008-3.8008-3.8008z"/>
 <path d="m62.699 32.301c0-0.19922-0.10156-0.39844-0.30078-0.60156-0.10156-0.19922-0.30078-0.30078-0.60156-0.39844-6.3984-1.1016-11.301-1.8984-14.5-2.3984h-0.30078c-0.5 0-1 0.30078-1.3008 0.69922-0.30078 0.39844-0.5 0.89844-0.60156 1.6016 0 0.30078 0 0.5-0.10156 0.69922v0.89844c0 0.5 0 0.89844 0.30078 1.3008 0.19922 0.39844 0.60156 0.60156 1.1016 0.69922 3 0.5 5.1992 0.89844 6.6016 1.1016-4.8008 4.6992-8.3984 8.1992-10.898 10.602-0.19922 0.19922-0.30078 0.5-0.39844 0.80078v1 0.39844c0 0.5 0.10156 1 0.30078 1.5 0 0.19922 0.10156 0.39844 0.30078 0.60156 0.10156 0.19922 0.30078 0.30078 0.60156 0.39844 6.8008 1.1992 11.898 2 15.301 2.6016h0.30078c0.5 0 1-0.30078 1.3008-0.69922 0.30078-0.39844 0.5-0.89844 0.60156-1.6016 0-0.30078 0-0.60156 0.10156-0.69922v-0.89844c0-0.5 0-0.89844-0.30078-1.3008-0.19922-0.39844-0.60156-0.60156-1.1016-0.69922-3.3984-0.60156-5.8984-1-7.3984-1.3008 4.8008-4.6016 8.3984-8.1016 10.801-10.5 0.19922-0.19922 0.30078-0.5 0.30078-0.89844v-0.80078-0.69922c0-0.60156-0.10156-1-0.30078-1.5z"/>
 <path d="m90.301 36.398c0-0.39844-0.19922-0.69922-0.19922-0.80078-0.19922-0.69922-0.39844-1.3008-0.80078-1.8008-0.30078-0.39844-0.89844-0.69922-1.3984-0.69922h-0.5c-4.1992 0.89844-7.1992 1.6016-9 2 3.1992-7.3984 5.6016-13 7.3008-16.699v-0.39844-0.60156c-0.10156-0.5-0.30078-1-0.60156-1.6016-0.30078-0.60156-0.60156-1.1016-1-1.5-0.19922-0.19922-0.30078-0.39844-0.5-0.5-0.19922-0.10156-0.39844-0.19922-0.60156-0.19922h-0.19922c-7.6016 1.6992-13.398 3-17.199 3.8008-0.5 0-0.89844 0.39844-1.1016 0.69922-0.30078 0.39844-0.39844 0.80078-0.39844 1.3984 0 0.39844 0 0.80078 0.19922 1.3008 0 0.30078 0.10156 0.60156 0.19922 0.80078 0.19922 0.69922 0.39844 1.3008 0.69922 1.8008 0.30078 0.39844 0.89844 0.69922 1.3984 0.69922h0.5c3.6992-0.80078 6.3984-1.3984 8.1016-1.8008-3.1992 7.3984-5.6016 13.102-7.3008 16.898v0.5 0.5c0.10156 0.5 0.30078 1 0.60156 1.6016 0.30078 0.5 0.60156 1 1 1.5 0.19922 0.19922 0.30078 0.39844 0.5 0.5 0.10156 0.10156 0.30078 0.19922 0.5 0.19922h0.19922c8.1016-1.8008 14.199-3.1992 18.199-4.1016 0.5 0 0.89844-0.30078 1.1016-0.69922 0.30078-0.39844 0.39844-0.80078 0.39844-1.3984 0-0.39844 0-0.80078-0.19922-1.3008z"/>
 <path d="m41.801 63.301c0-0.19922-0.19922-0.39844-0.19922-0.5-0.19922-0.39844-0.39844-0.80078-0.69922-1.1016-0.30078-0.30078-0.60156-0.39844-1-0.39844-0.19922 0-0.39844 0-0.60156 0.10156-2.3984 1-4.1016 1.6992-5.3008 2.1992 1.1992-5 2.1016-8.8008 2.6992-11.301 0-0.39844 0-0.60156-0.19922-0.80078-0.10156-0.30078-0.30078-0.60156-0.60156-1-0.30078-0.30078-0.5-0.60156-0.80078-0.89844-0.10156-0.10156-0.19922-0.19922-0.39844-0.30078-0.10156 0-0.30078-0.10156-0.39844-0.10156h-0.30078c-4.6992 2-8.3008 3.5-10.699 4.5-0.30078 0.10156-0.5 0.30078-0.60156 0.5-0.19922 0.19922-0.19922 0.5-0.19922 0.80078 0 0.39844 0.10156 0.80078 0.30078 1.3008 0 0.19922 0.19922 0.39844 0.19922 0.5 0.19922 0.39844 0.39844 0.80078 0.69922 1.1016 0.30078 0.30078 0.60156 0.39844 1 0.39844 0.19922 0 0.39844 0 0.60156-0.10156 2.1016-0.89844 3.6992-1.5 4.6992-2-1.1992 5-2.1016 8.8008-2.6992 11.398v0.19922c0 0.19922 0 0.39844 0.10156 0.60156 0.10156 0.30078 0.30078 0.60156 0.60156 1 0.30078 0.30078 0.5 0.60156 0.80078 0.89844 0.10156 0.10156 0.19922 0.19922 0.39844 0.30078v0.39844l0.69922-0.30078c5-2.1016 8.8008-3.6992 11.301-4.6992 0.30078-0.10156 0.5-0.30078 0.60156-0.5 0.19922-0.19922 0.19922-0.5 0.19922-0.80078 0-0.39844-0.10156-0.80078-0.30078-1.1992z"/>
</svg>
